<svg id="Camada_1" data-name="Camada 1" xmlns="http://www.w3.org/2000/svg" viewBox="0 0 158 147"><defs><style>.cls-1,.cls-10,.cls-6,.cls-9{fill:none;}.cls-1{stroke:#f2c394;stroke-miterlimit:10;stroke-width:6px;}.cls-2{fill:#b7ae99;}.cls-3{fill:#eac6a5;}.cls-4{fill:#ec9273;stroke:#7a4938;}.cls-10,.cls-4,.cls-6,.cls-9{stroke-linecap:round;stroke-linejoin:round;}.cls-5{fill:#c57b61;}.cls-6{stroke:#955a47;}.cls-6,.cls-9{stroke-width:2px;}.cls-7{fill:#9b9482;}.cls-8{fill:#635f53;}.cls-10,.cls-9{stroke:#635f53;}.cls-10{stroke-width:3px;}</style></defs><title>logo2Prancheta 1</title><path class="cls-1" d="M125.83,82.7A56.11,56.11,0,1,1,69.72,26.6,56.11,56.11,0,0,1,125.83,82.7Z"/><path class="cls-2" d="M145,53.81l0,0L133,69.47l-6.81,8.86-22,28.56-2.8,3.65-.82,1-.08,0a36.57,36.57,0,0,1-27.67,14.71c-1.12.05-2.26.06-3.39,0A36.69,36.69,0,0,1,45.24,115.6a34.79,34.79,0,0,1-3.44-4l-.1,0-2.11-3.07L20.93,81.41A26.06,26.06,0,0,1,6.43,58.06V52.65c0-.31,0-.63,0-.94s0-.45,0-.68,0-.52,0-.78c0-.62.11-1.25.21-1.88a24.32,24.32,0,0,1,.52-2.54c.09-.39.2-.77.32-1.15s.29-.91.45-1.36.29-.75.46-1.12A11.89,11.89,0,0,1,9,41.05c.18-.39.37-.76.57-1.13s.41-.73.63-1.09c.44-.72.91-1.42,1.4-2.08s1-1.27,1.52-1.86a.45.45,0,0,0,.07-.07c.28-.31.57-.61.87-.91L15,33c.6-.53,1.23-1,1.87-1.53.33-.25.68-.5,1-.73s.7-.46,1.06-.68.72-.43,1.09-.63l1-.5a24.58,24.58,0,0,1,2.51-1.07q.59-.21,1.17-.39c.3-.09.6-.19.9-.27.72-.2,1.47-.36,2.22-.49.28-.06.56-.11.86-.15L30,26.4c.81-.08,1.66-.12,2.5-.12h0a20.07,20.07,0,0,1,2.21.11c.32,0,.65.06,1,.1s.7.09,1,.14c.71.12,1.42.27,2.11.44l.76.2c.5.14,1,.3,1.46.47.3.09.59.21.88.32s.67.27,1,.42.67.3,1,.46c.65.32,1.29.67,1.94,1.06l.92.57c.32.22.63.43.93.66s.6.44.9.68c0,0,0,0,0,0L61.28,40a37.27,37.27,0,0,1,8.44-1,38.44,38.44,0,0,1,7.64.77l30.69-22.32.06,0A26,26,0,0,1,143,19.22a25.73,25.73,0,0,1,6.84,12.06A26,26,0,0,1,145,53.81Z"/><path class="cls-3" d="M126.37,78.1l-22.14,28.79c-15.88-.84-29.64-14-29.64-30.08A30.12,30.12,0,0,1,99.66,47.14c1.44.82,2.86,1.71,4.21,2.65A63.73,63.73,0,0,1,126.37,78.1Z"/><path class="cls-4" d="M145,53.81l.05,0L133,69.47l-6.82,8.85c-.12-.33-.25-.66-.38-1a60.52,60.52,0,0,0-21.94-27.53c-1.35-.94-2.77-1.83-4.21-2.65-.23-.13-.44-.27-.67-.39l23.54-17.26,0,0a20.14,20.14,0,0,1,26.94,1.38l.29.44A26,26,0,0,1,145,53.81Z"/><path class="cls-5" d="M149.59,31a20.14,20.14,0,0,0-21.45,2.52l0,0-19.25,14a60.36,60.36,0,0,1,16.84,29.23c0,.18.09.37.12.55a60.45,60.45,0,0,0-21-26.85l-1-.68c-1.35-.94-2.77-1.83-4.21-2.65-.23-.13-.44-.27-.67-.39l23.54-17.26,0,0A20.11,20.11,0,0,1,135.28,25a17.87,17.87,0,0,1,1.79.08l.25,0a8.53,8.53,0,0,1,.85.1,12.85,12.85,0,0,1,1.62.31,8,8,0,0,1,.81.2l.86.25c.29.1.58.19.86.3a19.94,19.94,0,0,1,7.19,4.62Z"/><path class="cls-6" d="M145,53.81l.05,0L133,69.47l-6.82,8.85c-.12-.33-.25-.66-.38-1a60.52,60.52,0,0,0-21.94-27.53c-1.35-.94-2.77-1.83-4.21-2.65-.23-.13-.44-.27-.67-.39l23.54-17.26,0,0a20.14,20.14,0,0,1,26.94,1.38l.29.44A26,26,0,0,1,145,53.81Z"/><path class="cls-7" d="M56.68,67.74a26.08,26.08,0,0,1-31,20.58h0L21.52,82a23.83,23.83,0,0,0,11.1,2.42C43.57,83.92,53.23,77.48,56.68,67.74Z"/><path class="cls-7" d="M52.25,115.6a36.68,36.68,0,0,0,22.42,10.58c-.61.06-1.21.11-1.81.13a29.67,29.67,0,0,1-3.4,0A36.63,36.63,0,0,1,45.24,115.6a34.88,34.88,0,0,1-3.45-4l-.09,0-2.11-3.07L20.92,81.41A26.05,26.05,0,0,1,6.43,58.06V52.64c0-.3,0-.62,0-.93s0-.45,0-.68a6.66,6.66,0,0,1,0-.78c0-.62.11-1.25.2-1.88.13-.86.31-1.71.52-2.54.09-.39.2-.77.32-1.15s.29-.91.46-1.36.29-.75.45-1.12.33-.78.52-1.15.38-.76.58-1.13.41-.73.62-1.09c.44-.72.91-1.42,1.41-2.08s1-1.27,1.52-1.86a.45.45,0,0,1,.07-.07c.28-.31.57-.61.86-.91s.63-.61,1-.92c.6-.53,1.23-1,1.87-1.54.33-.24.68-.49,1-.72s.69-.47,1-.68.72-.43,1.1-.63.65-.34,1-.5a24.58,24.58,0,0,1,2.51-1.07c.39-.14.77-.27,1.16-.39s.6-.19.91-.27c.72-.2,1.47-.36,2.22-.49.28-.06.56-.11.85-.15s.82-.11,1.25-.15c.81-.08,1.65-.12,2.49-.12h0a19.88,19.88,0,0,1,2.2.11c.32,0,.66.05,1,.09l.27,0a1.66,1.66,0,0,1-.22,0c-.29,0-.57.09-.85.15-.75.13-1.49.29-2.22.49-.31.08-.6.18-.9.27s-.78.25-1.17.39a24.58,24.58,0,0,0-2.51,1.07l-1,.5c-.37.2-.73.42-1.09.63s-.71.44-1.06.68-.69.48-1,.72c-.64.5-1.27,1-1.87,1.54-.33.31-.65.61-1,.92s-.59.6-.87.91l-.07.07c-.52.59-1,1.21-1.52,1.86s-1,1.36-1.4,2.08c-.22.36-.43.72-.63,1.09s-.39.74-.57,1.13-.37.76-.53,1.15L15,43.32c-.16.45-.31.91-.45,1.36s-.23.76-.32,1.15c-.22.83-.39,1.68-.53,2.54-.09.63-.15,1.26-.2,1.88,0,.26,0,.51,0,.78s0,.45,0,.68,0,.63,0,.93v5.42a26.06,26.06,0,0,0,14.5,23.35L46.6,108.52l2.11,3.07.1,0A34.79,34.79,0,0,0,52.25,115.6Z"/><path class="cls-7" d="M37.58,83.6a25.21,25.21,0,0,1-5.1.51,26.11,26.11,0,0,1-11.56-2.7,27,27,0,0,1-3.82-2.32c-.19-.14-.39-.28-.57-.43A28,28,0,0,1,14,76.39c-.19-.19-.36-.38-.55-.58l-.85-1c-.19-.23-.38-.45-.56-.69-.39-.5-.78-1-1.12-1.54-.25-.35-.47-.7-.69-1.06a10.63,10.63,0,0,1-.53-.93c-.24-.43-.45-.86-.67-1.28s-.32-.67-.45-1c-.23-.52-.43-1-.62-1.56-.12-.32-.22-.64-.32-1s-.14-.47-.2-.71-.2-.7-.28-1.06S7,63.56,7,63.31s-.15-.72-.2-1.1c0-.13,0-.25-.07-.39-.05-.36-.09-.73-.13-1.09s-.08-.88-.09-1.34,0-.88,0-1.33V52.64c0-.3,0-.62,0-.93s0-.45,0-.68V51c0-.24,0-.46,0-.69v0c0-.28,0-.54.07-.83s.08-.7.13-1.05c.12-.79.28-1.55.47-2.31,0-.08,0-.15,0-.23s0-.17.08-.27c.08-.32.17-.65.28-1s.27-.84.42-1.27.29-.75.45-1.12.33-.78.52-1.15.38-.76.58-1.13.41-.73.62-1.09c.44-.72.91-1.42,1.41-2.08s1-1.27,1.52-1.86a.45.45,0,0,1,.07-.07c.28-.31.57-.61.86-.91s.63-.61,1-.92c.6-.53,1.23-1,1.87-1.54.33-.24.68-.49,1-.72s.69-.47,1-.68.72-.43,1.1-.63.65-.34,1-.5a24.58,24.58,0,0,1,2.51-1.07c.39-.14.77-.27,1.16-.39s.6-.19.91-.27h.08c.28-.08.56-.16.84-.22.43-.1.87-.18,1.3-.26s.56-.11.85-.15.82-.11,1.25-.15c.81-.08,1.65-.12,2.49-.12h0c.57,0,1.14,0,1.7.07A26.06,26.06,0,0,0,13.25,51.9v5.72A26,26,0,0,0,37.58,83.6Z"/><path class="cls-8" d="M101.9,83.67A6.68,6.68,0,1,1,95.22,77,6.68,6.68,0,0,1,101.9,83.67Z"/><path class="cls-8" d="M50.91,83.67a6.68,6.68,0,0,1-13.36,0v0a25.83,25.83,0,0,0,11-5A6.6,6.6,0,0,1,50.91,83.67Z"/><path class="cls-7" d="M68,114.8a8.89,8.89,0,0,1-8.29,6h-.12a8.92,8.92,0,0,1-8.76-8.11,4.36,4.36,0,0,1,1.17-3,8.89,8.89,0,0,0,8.79,8.79h.1A8.8,8.8,0,0,0,68,114.8Z"/><path class="cls-7" d="M85.72,114.83a8.87,8.87,0,0,1-8.3,6h-.1a8.93,8.93,0,0,1-8.62-7.11,8.53,8.53,0,0,0,1-4.1,8.9,8.9,0,0,0,8.79,8.91h.12A8.88,8.88,0,0,0,85.72,114.83Z"/><path class="cls-8" d="M77.18,109.72a1.12,1.12,0,1,1-1.11-1.11A1.12,1.12,0,0,1,77.18,109.72Z"/><path class="cls-8" d="M83.53,109.72a1.12,1.12,0,1,1-1.12-1.11A1.12,1.12,0,0,1,83.53,109.72Z"/><path class="cls-8" d="M80.63,113.85a1.12,1.12,0,1,1-1.11-1.12A1.11,1.11,0,0,1,80.63,113.85Z"/><path class="cls-8" d="M58.14,109.72A1.12,1.12,0,1,1,57,108.61,1.12,1.12,0,0,1,58.14,109.72Z"/><path class="cls-8" d="M64.49,109.72a1.12,1.12,0,1,1-1.11-1.11A1.12,1.12,0,0,1,64.49,109.72Z"/><path class="cls-8" d="M61.59,113.85a1.12,1.12,0,1,1-1.11-1.12A1.11,1.11,0,0,1,61.59,113.85Z"/><path class="cls-7" d="M69.4,110.4l-9.34-5.17-.87-.48-.09,0a.69.69,0,0,1-.35-.62.76.76,0,0,1,.1-.37l.22-.22,2.16-2.13.2.21Z"/><path class="cls-9" d="M52,109.61a8.91,8.91,0,0,0,8.91,8.91h-.12a8.91,8.91,0,0,0,8.91-8.91,8.91,8.91,0,0,0,8.91,8.91h-.12a8.9,8.9,0,0,0,8.91-8.91"/><path class="cls-9" d="M54.86,48.67a3.67,3.67,0,0,1,3.68,3.67v5.72a26.06,26.06,0,1,1-52.11,0V52.34A26,26,0,0,1,32.48,26.29"/><path class="cls-8" d="M78.23,102.3l-8,8a.79.79,0,0,1-.48.18.77.77,0,0,1-.47-.18l-8-8a.69.69,0,0,1-.15-.74.7.7,0,0,1,.62-.42H77.75a.71.71,0,0,1,.63.42A.75.75,0,0,1,78.23,102.3Z"/><path class="cls-10" d="M145,53.81l.05,0L133,69.47l-6.82,8.85-22,28.57-2.81,3.65-.81,1-.08,0a35.71,35.71,0,0,1-3.45,4,36.63,36.63,0,0,1-24.22,10.71,29.67,29.67,0,0,1-3.4,0A36.63,36.63,0,0,1,45.24,115.6a34.88,34.88,0,0,1-3.45-4l-.09,0-2.11-3.07L24.8,87h0l-3.86-5.61a27,27,0,0,1-3.82-2.32c-.19-.14-.39-.28-.57-.43A28,28,0,0,1,14,76.39c-.19-.19-.36-.38-.55-.58l-.85-1c-.19-.23-.38-.45-.56-.69-.39-.5-.78-1-1.12-1.54-.25-.35-.47-.7-.69-1.06a10.63,10.63,0,0,1-.53-.93c-.24-.43-.45-.86-.67-1.28s-.32-.67-.45-1c-.23-.52-.43-1-.62-1.56-.12-.32-.22-.64-.32-1s-.14-.47-.2-.71-.2-.7-.28-1.06S7,63.56,7,63.31s-.15-.72-.2-1.1c0-.13,0-.25-.07-.39-.05-.36-.09-.73-.13-1.09s-.08-.88-.09-1.34,0-.88,0-1.33V52.64c0-.3,0-.62,0-.93s0-.45,0-.68,0-.22,0-.32,0-.31,0-.46,0-.62.08-1,.07-.61.12-.93c0-.16,0-.33.09-.5.07-.45.16-.9.27-1.34,0-.24.11-.47.16-.7.09-.39.2-.77.32-1.15s.29-.91.46-1.36.29-.75.45-1.12.33-.78.52-1.15.38-.76.58-1.13.41-.73.62-1.09c.44-.72.91-1.42,1.41-2.08s1-1.27,1.52-1.86a.45.45,0,0,1,.07-.07c.28-.31.57-.61.86-.91s.63-.61,1-.92c.6-.53,1.23-1,1.87-1.54.33-.24.68-.49,1-.72s.69-.47,1-.68.72-.43,1.1-.63.65-.34,1-.5a24.58,24.58,0,0,1,2.51-1.07c.39-.14.77-.27,1.16-.39s.6-.19.91-.27c.72-.2,1.47-.36,2.22-.49.28-.06.56-.11.85-.15s.82-.11,1.25-.15c.81-.08,1.65-.12,2.49-.12h0a19.88,19.88,0,0,1,2.2.11c.32,0,.66.05,1,.09l1.06.15c.71.12,1.41.27,2.11.44l.76.2c.5.14,1,.3,1.46.47.29.09.59.21.88.32l1,.41,1,.47c.66.32,1.3.67,1.94,1.06l.92.57c.32.22.63.43.94.66s.6.44.89.68c0,0,0,0,0,0L61.27,40a38,38,0,0,1,16.09-.19l30.69-22.33,0,0A26,26,0,0,1,143,19.22a25.65,25.65,0,0,1,6.84,12.06A26,26,0,0,1,145,53.81Z"/></svg>