<svg id="Camada_1" data-name="Camada 1" xmlns="http://www.w3.org/2000/svg" viewBox="0 0 362 66"><defs><style>.cls-1{fill:#fff;}.cls-2,.cls-3{fill:#666666;}.cls-3{stroke:#666666;stroke-miterlimit:10;stroke-width:3px;}</style></defs><title>logo2Prancheta 1</title><path class="cls-1" d="M53.62,18C56,20.44,57.25,24,57.25,28.55v19.2H53.1V29q0-5.34-2.58-8.16a9,9,0,0,0-7-2.82,9.45,9.45,0,0,0-7.38,3.06c-1.84,2-2.75,5-2.75,8.88V47.75H29.22V29q0-5.34-2.58-8.16a9.12,9.12,0,0,0-7.08-2.82,9.45,9.45,0,0,0-7.38,3.06Q9.42,24.17,9.42,30V47.75H5.22V15h4.2v5.64A10.7,10.7,0,0,1,13.87,16a13,13,0,0,1,6.42-1.59,13.62,13.62,0,0,1,7.46,2,11.57,11.57,0,0,1,4.66,6,11,11,0,0,1,4.52-6,13.16,13.16,0,0,1,7.29-2.07A12.74,12.74,0,0,1,53.62,18Z"/><path class="cls-1" d="M93.54,15,74.1,63.17H69.72l6.36-15.6L62.64,15h4.62L78.42,43l10.8-28Z"/><path class="cls-2" d="M97.77,47.15a3.07,3.07,0,0,1-.87-2.22A3,3,0,0,1,100,41.87a2.9,2.9,0,0,1,2.13.87,3,3,0,0,1,.87,2.19,3.07,3.07,0,0,1-.87,2.22,2.85,2.85,0,0,1-2.13.9A2.92,2.92,0,0,1,97.77,47.15Z"/><path class="cls-1" d="M123.06,18.53h-7.62V47.75h-4.2V18.53h-4.56V15h4.56V12.71q0-5.34,2.73-7.86t8.85-2.52v3.6q-4.08,0-5.73,1.56t-1.65,5.22V15h7.62Z"/><path class="cls-1" d="M129.6,7.91a3,3,0,0,1-.9-2.22,2.92,2.92,0,0,1,.9-2.19,3.12,3.12,0,0,1,4.32,0,2.92,2.92,0,0,1,.9,2.19,3,3,0,0,1-.9,2.22,3,3,0,0,1-4.32,0ZM133.86,15V47.75h-4.2V15Z"/><path class="cls-1" d="M168.36,18q3.72,3.63,3.72,10.53v19.2h-4.14V29q0-5.34-2.67-8.16A9.56,9.56,0,0,0,158,18.05a9.88,9.88,0,0,0-7.56,3q-2.82,3-2.82,8.82V47.75h-4.2V15h4.2v5.58A10.72,10.72,0,0,1,152.1,16a13.77,13.77,0,0,1,6.66-1.59A13.17,13.17,0,0,1,168.36,18Z"/><path class="cls-1" d="M181.47,22.46a14.39,14.39,0,0,1,5.58-5.88,15.79,15.79,0,0,1,8.07-2.07,14.7,14.7,0,0,1,8.07,2.16,12.57,12.57,0,0,1,4.89,5.52V15h4.2V47.75h-4.2V40.49a13.16,13.16,0,0,1-5,5.55,14.55,14.55,0,0,1-8.07,2.19,15.5,15.5,0,0,1-8-2.1,14.55,14.55,0,0,1-5.58-5.94,18.87,18.87,0,0,1-2-8.88A18.69,18.69,0,0,1,181.47,22.46Zm25,1.95a11.56,11.56,0,0,0-4.41-4.62,12,12,0,0,0-6.15-1.62,12.46,12.46,0,0,0-6.24,1.56,11.06,11.06,0,0,0-4.35,4.53,14.74,14.74,0,0,0-1.59,7,15,15,0,0,0,1.59,7.05A11.17,11.17,0,0,0,189.66,43a12.27,12.27,0,0,0,6.24,1.59A12,12,0,0,0,202.05,43a11.56,11.56,0,0,0,4.41-4.62,14.42,14.42,0,0,0,1.62-7A14.42,14.42,0,0,0,206.46,24.41Z"/><path class="cls-1" d="M246.84,18q3.72,3.63,3.72,10.53v19.2h-4.14V29q0-5.34-2.67-8.16a9.56,9.56,0,0,0-7.29-2.82,9.88,9.88,0,0,0-7.56,3q-2.82,3-2.82,8.82V47.75h-4.2V15h4.2v5.58a10.72,10.72,0,0,1,4.5-4.59,13.77,13.77,0,0,1,6.66-1.59A13.17,13.17,0,0,1,246.84,18Z"/><path class="cls-1" d="M260,22.46a14.53,14.53,0,0,1,5.64-5.88,16.19,16.19,0,0,1,8.22-2.07,16,16,0,0,1,10,3,13.58,13.58,0,0,1,5.07,8.16h-4.5a9.21,9.21,0,0,0-3.63-5.55,11.55,11.55,0,0,0-6.93-2,11.81,11.81,0,0,0-5.94,1.5,10.52,10.52,0,0,0-4.17,4.47,15.78,15.78,0,0,0-1.53,7.29,16,16,0,0,0,1.53,7.32,10.48,10.48,0,0,0,4.17,4.5,11.81,11.81,0,0,0,5.94,1.5,11.55,11.55,0,0,0,6.93-2,9.24,9.24,0,0,0,3.63-5.61h4.5a13.74,13.74,0,0,1-5.1,8.1,15.81,15.81,0,0,1-10,3.06,16.19,16.19,0,0,1-8.22-2.07A14.53,14.53,0,0,1,260,40.28a18.6,18.6,0,0,1-2-8.91A18.6,18.6,0,0,1,260,22.46Z"/><path class="cls-1" d="M326.16,33H299a13.19,13.19,0,0,0,1.8,6.36,10.6,10.6,0,0,0,4.26,4,12.47,12.47,0,0,0,5.76,1.35,11.57,11.57,0,0,0,6.87-2,9.3,9.3,0,0,0,3.69-5.34h4.44a13.87,13.87,0,0,1-5.13,7.83,15.69,15.69,0,0,1-9.87,3,16.52,16.52,0,0,1-8.28-2.07,14.62,14.62,0,0,1-5.73-5.88,18.38,18.38,0,0,1-2.07-8.91,18.78,18.78,0,0,1,2-8.94,14.18,14.18,0,0,1,5.7-5.88,16.84,16.84,0,0,1,8.34-2,16,16,0,0,1,8.19,2,14.1,14.1,0,0,1,5.4,5.49,15.66,15.66,0,0,1,1.89,7.65Q326.28,31.85,326.16,33Zm-5.61-9.66a9.92,9.92,0,0,0-4.17-3.9,12.7,12.7,0,0,0-5.76-1.32,11.44,11.44,0,0,0-8,3A12,12,0,0,0,299,29.57h23A11.64,11.64,0,0,0,320.55,23.33Z"/><path class="cls-2" d="M336,45.62a9.51,9.51,0,0,1-4-7.11h4.32A6.2,6.2,0,0,0,339,43a10.21,10.21,0,0,0,6.21,1.71,8.16,8.16,0,0,0,5.37-1.62,5,5,0,0,0,1.95-4,3.74,3.74,0,0,0-1.08-2.76,7.66,7.66,0,0,0-2.73-1.71,42.62,42.62,0,0,0-4.47-1.35,45.45,45.45,0,0,1-5.94-1.92,10.12,10.12,0,0,1-3.87-2.85,7.62,7.62,0,0,1-1.59-5.07A7.54,7.54,0,0,1,334.26,19a9.83,9.83,0,0,1,4.08-3.24,14.35,14.35,0,0,1,6-1.2,13,13,0,0,1,8.52,2.67,9.7,9.7,0,0,1,3.48,7.35h-4.2a6.38,6.38,0,0,0-2.25-4.65,8.44,8.44,0,0,0-5.67-1.77,8.32,8.32,0,0,0-5.16,1.5,4.51,4.51,0,0,0-2,3.72,4.38,4.38,0,0,0,1.17,3.15,8,8,0,0,0,2.91,1.92q1.74.69,4.68,1.53a44.2,44.2,0,0,1,5.64,1.86,9.78,9.78,0,0,1,3.6,2.64,7.07,7.07,0,0,1,1.56,4.62,8,8,0,0,1-1.44,4.71,9.79,9.79,0,0,1-4,3.27,13.94,13.94,0,0,1-5.94,1.2A15.22,15.22,0,0,1,336,45.62Z"/><line class="cls-3" x1="344.5" y1="9.5" x2="344.5" y2="55"/></svg>